<?xml version="1.0" encoding="UTF-8" standalone="no"?>
<svg
   width="51"
   height="50"
   viewBox="0 0 51 50"
   fill="none"
   version="1.1"
   id="svg6"
   sodipodi:docname="atlas-icon.svg"
   inkscape:version="1.4 (e7c3feb100, 2024-10-09)"
   xmlns:inkscape="http://www.inkscape.org/namespaces/inkscape"
   xmlns:sodipodi="http://sodipodi.sourceforge.net/DTD/sodipodi-0.dtd"
   xmlns="http://www.w3.org/2000/svg"
   xmlns:svg="http://www.w3.org/2000/svg">
  <sodipodi:namedview
     id="namedview6"
     pagecolor="#ffffff"
     bordercolor="#000000"
     borderopacity="0.25"
     inkscape:showpageshadow="2"
     inkscape:pageopacity="0.0"
     inkscape:pagecheckerboard="0"
     inkscape:deskcolor="#d1d1d1"
     inkscape:zoom="7.5294118"
     inkscape:cx="25.5"
     inkscape:cy="25.035156"
     inkscape:window-width="1906"
     inkscape:window-height="1030"
     inkscape:window-x="0"
     inkscape:window-y="0"
     inkscape:window-maximized="0"
     inkscape:current-layer="svg6" />
  <g
     clip-path="url(#clip0_2340_2191)"
     id="g3"
     transform="matrix(1.5084833,0,0,1.5084833,-12.956518,-9.224788)">
    <path
       fill-rule="evenodd"
       clip-rule="evenodd"
       d="M 29.0618,15.0151 25.5445,9 10.0703,35.5162 h 7.1279 c 2.231,0 4.294,-1.1853 5.4175,-3.1128 L 29.066,21.3387 c 1.1394,-1.9543 1.1377,-4.3708 -0.0042,-6.3236 z"
       fill="#d1edd4"
       id="path1" />
    <path
       fill-rule="evenodd"
       clip-rule="evenodd"
       d="m 25.6223,27.4297 h -7.2167 c -2.2251,0 -4.2835,1.179 -5.4092,3.0982 l -2.9261,4.9888 h 7.2167 c 2.225,0 4.2835,-1.179 5.4092,-3.0982 z"
       fill="url(#paint0_linear_2340_2191)"
       id="path2"
       style="fill:url(#paint0_linear_2340_2191)" />
    <path
       fill-rule="evenodd"
       clip-rule="evenodd"
       d="M 22.0295,15.0151 25.5467,9 41.021,35.5162 h -7.1279 c -2.231,0 -4.294,-1.1853 -5.4176,-3.1128 L 22.0252,21.3387 c -1.1393,-1.9543 -1.1377,-4.3708 0.0043,-6.3236 z"
       fill="url(#paint1_linear_2340_2191)"
       id="path3"
       style="fill:url(#paint1_linear_2340_2191)" />
  </g>
  <defs
     id="defs6">
    <linearGradient
       id="paint0_linear_2340_2191"
       x1="25.6223"
       y1="30.3799"
       x2="12.7663"
       y2="37.065"
       gradientUnits="userSpaceOnUse">
      <stop
         stop-color="#1B8F29"
         id="stop3" />
      <stop
         offset="1"
         stop-color="#0FBC23"
         id="stop4" />
    </linearGradient>
    <linearGradient
       id="paint1_linear_2340_2191"
       x1="28.0776"
       y1="9"
       x2="42.4315"
       y2="32.3113"
       gradientUnits="userSpaceOnUse">
      <stop
         stop-color="#BFECC4"
         id="stop5" />
      <stop
         offset="1"
         stop-color="#2E7636"
         id="stop6" />
    </linearGradient>
    <clipPath
       id="clip0_2340_2191">
      <rect
         width="31"
         height="28"
         fill="white"
         transform="translate(10 9)"
         id="rect6" />
    </clipPath>
  </defs>
</svg>
